<?xml version="1.0" encoding="UTF-8" standalone="no"?>
<svg
   xmlns:dc="http://purl.org/dc/elements/1.1/"
   xmlns:cc="http://creativecommons.org/ns#"
   xmlns:rdf="http://www.w3.org/1999/02/22-rdf-syntax-ns#"
   xmlns:svg="http://www.w3.org/2000/svg"
   xmlns="http://www.w3.org/2000/svg"
   xmlns:sodipodi="http://sodipodi.sourceforge.net/DTD/sodipodi-0.dtd"
   xmlns:inkscape="http://www.inkscape.org/namespaces/inkscape"
   inkscape:export-ydpi="96"
   inkscape:export-xdpi="96"
   inkscape:export-filename="/home/qualbean/drawing.png"
   sodipodi:docname="drawing.svg"
   inkscape:version="1.0 (4035a4fb49, 2020-05-01)"
   id="svg8"
   version="1.1"
   viewBox="0 90 210 100"
   height="84px"
   width="144px">
  <defs
     id="defs2">
    <rect
       id="rect80"
       height="45.371686"
       width="87.191969"
       y="101.20324"
       x="90.604468" />
    <rect
       id="rect36"
       height="36.327863"
       width="148.8822"
       y="36.816805"
       x="26.816008" />
    <rect
       x="90.604469"
       y="101.20324"
       width="62.972894"
       height="20.049724"
       id="rect80-2" />
    <rect
       x="90.604469"
       y="101.20324"
       width="87.191971"
       height="45.371685"
       id="rect106" />
    <rect
       id="rect80-2-0"
       height="20.049725"
       width="62.972893"
       y="101.20324"
       x="90.604469" />
    <rect
       id="rect175"
       height="20.049725"
       width="62.972893"
       y="101.20324"
       x="90.604469" />
  </defs>
  <sodipodi:namedview
     inkscape:window-maximized="1"
     inkscape:window-y="0"
     inkscape:window-x="0"
     inkscape:window-height="874"
     inkscape:window-width="1600"
     showgrid="false"
     inkscape:document-rotation="0"
     inkscape:current-layer="layer1"
     inkscape:document-units="mm"
     inkscape:cy="413.63115"
     inkscape:cx="-29.762918"
     inkscape:zoom="0.70710678"
     inkscape:pageshadow="2"
     inkscape:pageopacity="0.0"
     borderopacity="1.0"
     bordercolor="#666666"
     pagecolor="#ffffff"
     id="base" />
  <metadata
     id="metadata5">
    <rdf:RDF>
      <cc:Work
         rdf:about="">
        <dc:format>image/svg+xml</dc:format>
        <dc:type
           rdf:resource="http://purl.org/dc/dcmitype/StillImage" />
        <dc:title />
      </cc:Work>
    </rdf:RDF>
  </metadata>
  <g
     id="layer1"
     inkscape:groupmode="layer"
     inkscape:label="Layer 1">
    <text
       style="fill:black;fill-opacity:1;line-height:1.25;stroke:none;font-family:sans-serif;font-style:normal;font-weight:normal;font-size:10.58333333px;white-space:pre;shape-inside:url(#rect36);"
       id="text34"
       xml:space="preserve" />
    <text
       id="text42"
       y="39.882347"
       x="38.3172"
       style="font-style:normal;font-variant:normal;font-weight:normal;font-stretch:normal;font-size:10.5833px;line-height:1.25;font-family:P052;-inkscape-font-specification:P052;fill:#000000;fill-opacity:1;stroke:none;stroke-width:0.264583"
       xml:space="preserve"><tspan
         style="font-style:normal;font-variant:normal;font-weight:normal;font-stretch:normal;font-family:P052;-inkscape-font-specification:P052;stroke-width:0.264583"
         y="39.882347"
         x="38.3172"
         id="tspan40"
         sodipodi:role="line" /></text>
    <g
       id="g328"
       transform="matrix(1.6080626,0,0,1.6080626,-62.710777,-11.8775)">
      <text
         transform="matrix(4.0376482,0,0,4.0376482,-312.96983,-344.14459)"
         style="font-style:normal;font-variant:normal;font-weight:normal;font-stretch:normal;font-size:9.25186px;line-height:1.25;font-family:Z003;-inkscape-font-specification:Z003;white-space:pre;shape-inside:url(#rect80-2);"
         id="text78-5"
         xml:space="preserve"><tspan
           x="90.603516"
           y="108.86873"><tspan
             style="font-style:normal;font-variant:normal;font-weight:normal;font-stretch:normal;font-size:9.25186px;font-family:Walkout;-inkscape-font-specification:Walkout">NoteAsk</tspan></tspan></text>
      <g
         inkscape:transform-center-y="184.0894"
         inkscape:transform-center-x="177.01644"
         transform="matrix(0.06418472,0,0,0.06418472,137.17584,90.211506)"
         id="g235">
        <g
           id="g174">
          <path
             style="fill:#010002"
             d="m 30.421,317.462 4.422,-17.661 -12.194,-4.814 -8.376,13.804 c 0,0 4.618,12.526 -0.511,22.539 0.004,0.001 6.422,-10.931 16.659,-13.868 z m -8.192,-8.104 c 1.501,-0.615 3.231,0.087 3.851,1.561 0.625,1.474 -0.087,3.171 -1.588,3.786 -1.501,0.615 -3.231,-0.087 -3.851,-1.561 -0.631,-1.48 0.082,-3.177 1.588,-3.786 z"
             id="path162" />
          <path
             style="fill:#010002"
             d="m 158.353,112.621 c -35.115,28.8 -81.086,88.124 -120.073,157.423 l -0.022,-0.027 -6.815,12.026 7.267,2.796 3.84,-10.117 c 20.799,-37.491 77.224,-135.4 180.397,-200.451 0,0 38.411,-22.877 76.256,-54.516 -9.214,7.702 -27.391,17.356 -37.247,23.584 -25.868,16.344 -57.79,31.704 -103.603,69.282 z"
             id="path164" />
          <path
             style="fill:#010002"
             d="m 33.2,215.365 c -7.985,28.223 -7.528,49.718 -4.438,55.625 h 4.83 C 46.929,243.365 111.164,143.297 151.146,111.974 192.57,79.519 224.524,60.635 251.399,46.863 c 9.437,-4.835 19.118,-11.384 27.848,-17.949 10.601,-8.36 21.348,-17.302 30.758,-26.053 L 282.728,20.75 294.89,2.148 271.67,25.759 286.78,0 c -35.746,3.225 -68.918,21.109 -68.918,21.109 -13.271,15.741 -23.959,40.782 -23.959,40.782 -0.37,-12.521 8.11,-31.481 8.11,-31.481 -6.266,2.861 -30.073,16.459 -30.073,16.459 -11.645,9.66 -15.262,35.06 -15.262,35.06 -2.214,-10.019 5.526,-29.333 5.526,-29.333 -33.543,19.32 -57.502,52.231 -57.502,52.231 -16.584,32.553 -2.948,57.953 -8.11,51.872 -5.162,-6.081 -4.052,-28.261 -4.052,-28.261 -35.017,33.63 -38.699,49.724 -38.699,49.724 -5.896,14.31 -11.058,52.59 -11.058,52.59 -3.318,-3.579 0,-23.611 0,-23.611 -8.479,17.889 -4.422,34.701 -4.422,34.701 C 34.309,240.407 33.2,215.365 33.2,215.365 Z"
             id="path166" />
          <path
             style="fill:#010002"
             d="m 310.01,14.191 c 0,0 -13.483,13.065 -30.758,26.053 C 252.171,61.603 226.096,79.063 226.096,79.063 123.945,139.425 67.025,237.932 48.212,271.708 h 10.002 c 3.535,-2.834 8.844,-4.971 31.014,-11.389 28.011,-8.11 44.72,-25.041 44.72,-25.041 0,0 -25.553,14.31 -37.595,12.88 -12.042,-1.43 -28.223,3.1 -28.223,3.1 0,0 -6.179,-2.861 24.291,-7.392 30.47,-4.531 80.596,-38.634 80.596,-38.634 0,0 -19.167,7.87 -28.011,7.152 -8.844,-0.718 -30.714,0 -30.714,0 14.495,-3.34 28.011,-1.43 50.126,-9.779 22.115,-8.349 20.886,-7.631 20.886,-7.631 25.063,-8.349 35.474,-34.342 35.474,-34.342 -4.335,1.67 -37.443,5.722 -51.176,1.67 -13.734,-4.052 -37.132,0 -37.132,0 22.115,-7.392 27.032,-4.052 32.433,-4.291 5.406,-0.239 22.855,1.191 57.502,-10.731 34.647,-11.922 44.475,-26.711 44.475,-26.711 l -23.366,3.122 c 15.257,-2.567 32.455,-12.662 32.455,-12.662 -10.568,2.861 -27.032,4.291 -27.032,4.291 19.412,-4.291 30.225,-10.253 30.225,-10.253 18.183,-13.832 22.36,-34.342 22.36,-34.342 -25.803,8.822 -46.194,4.77 -46.194,4.77 35.387,-2.382 45.215,-11.449 50.126,-13.592 4.917,-2.148 6.94,-11.03 6.94,-11.03 -17.878,6.44 -38.15,7.511 -38.15,7.511 21.93,-3.399 40.722,-14.49 40.722,-14.49 V 32.792 c -8.479,4.83 -23.399,8.588 -23.399,8.588 l 23.219,-15.023 c 1.305,-7.516 -4.776,-12.166 -4.776,-12.166 z"
             id="path168" />
          <polygon
             style="fill:#010002"
             points="37.361,296.103 39.933,289.989 26.124,284.458 23.551,290.571 "
             id="polygon170" />
          <path
             style="fill:#010002;stroke-width:1.21851"
             d="m 210.21545,275.78049 c -55.59795,26.72913 -109.00992,44.94822 -180.043899,47.33405 -6.62745,0.22543 -6.660349,6.85288 0,6.62745 63.54505,-2.1336 116.419649,-15.79304 167.411659,-39.69281 56.80428,-26.62921 108.97702,-48.9437 180.1292,-56.52646 6.56165,-0.70307 3.77127,-7.08439 -2.74408,-6.38862 -63.01378,6.72127 -114.21171,24.35061 -164.75288,48.64639 z"
             id="path172" />
        </g>
        <g
           id="g176" />
        <g
           id="g178" />
        <g
           id="g180" />
        <g
           id="g182" />
        <g
           id="g184" />
        <g
           id="g186" />
        <g
           id="g188" />
        <g
           id="g190" />
        <g
           id="g192" />
        <g
           id="g194" />
        <g
           id="g196" />
        <g
           id="g198" />
        <g
           id="g200" />
        <g
           id="g202" />
        <g
           id="g204" />
      </g>
    </g>
  </g>
</svg>
